inDegrees=no
num_controls=7
num_derivatives=13
num_iterations=229
num_multipliers=7
num_parameters=0
num_slacks=7
num_states=26
objective=5.926004
objective_accelerations=0.748915
objective_balance=0.014919
objective_effort=0.517272
objective_height=4.594584
objective_ligament=0.050313
solver_duration=1920.365795
status=Solve_Succeeded
success=true
DataType=double
version=3
OpenSimVersion=4.4-2022-07-23-0e9fedc
endheader
time	/jointset/ground_pelvis/pelvis_tilt/value	/jointset/ground_pelvis/pelvis_tx/value	/jointset/ground_pelvis/pelvis_ty/value	/jointset/hip_r/hip_flexion_r/value	/jointset/hip_r/hip_adduction_r/value	/jointset/hip_r/hip_rotation_r/value	/jointset/back/lumbar_extension/value	/jointset/patellofemoral_r/patellar_flexion_r/value	/jointset/knee_r/knee_flexion_r/value	/jointset/knee_r/knee_adduction_r/value	/jointset/knee_r/knee_rotation_r/value	/jointset/ankle_r/ankle_angle_r/value	/jointset/subtalar_r/subtalar_angle_r/value	/jointset/ground_pelvis/pelvis_tilt/speed	/jointset/ground_pelvis/pelvis_tx/speed	/jointset/ground_pelvis/pelvis_ty/speed	/jointset/hip_r/hip_flexion_r/speed	/jointset/hip_r/hip_adduction_r/speed	/jointset/hip_r/hip_rotation_r/speed	/jointset/back/lumbar_extension/speed	/jointset/patellofemoral_r/patellar_flexion_r/speed	/jointset/knee_r/knee_flexion_r/speed	/jointset/knee_r/knee_adduction_r/speed	/jointset/knee_r/knee_rotation_r/speed	/jointset/ankle_r/ankle_angle_r/speed	/jointset/subtalar_r/subtalar_angle_r/speed	/forceset/tau_hip_flexion_r	/forceset/tau_hip_adduction_r	/forceset/tau_hip_rotation_r	/forceset/tau_knee_flexion_r	/forceset/tau_ankle_angle_r	/forceset/tau_subtalar_angle_r	/forceset/tau_lumbar_extension	lambda_cid13_p0	lambda_cid14_p0	lambda_cid14_p1	lambda_cid14_p2	lambda_cid14_p3	lambda_cid14_p4	lambda_cid14_p5	/jointset/ground_pelvis/pelvis_tilt/accel	/jointset/ground_pelvis/pelvis_tx/accel	/jointset/ground_pelvis/pelvis_ty/accel	/jointset/hip_r/hip_flexion_r/accel	/jointset/hip_r/hip_adduction_r/accel	/jointset/hip_r/hip_rotation_r/accel	/jointset/back/lumbar_extension/accel	/jointset/patellofemoral_r/patellar_flexion_r/accel	/jointset/knee_r/knee_flexion_r/accel	/jointset/knee_r/knee_adduction_r/accel	/jointset/knee_r/knee_rotation_r/accel	/jointset/ankle_r/ankle_angle_r/accel	/jointset/subtalar_r/subtalar_angle_r/accel	gamma_cid13_p0	gamma_cid14_p0	gamma_cid14_p1	gamma_cid14_p2	gamma_cid14_p3	gamma_cid14_p4	gamma_cid14_p5
1.5	-0.1144669406611587	0.01991984361665002	0.7950003611622086	0.9081179502217807	-0.2383799991774209	-0.07744177548540937	-0.6381140106121574	1.017742448077428	1.01774244807741	-0.002553899681578528	0.1745323520211847	0.3102362373459491	0.119803199319288	0.5376338223010138	0.2390132787037854	0.5987930197498105	-2.274051294263125	0.03591128374343434	-0.4141282503293388	0.7969738619709261	-2.169454526761544	-2.169454526761535	0.2569786718885048	-3.595083755474357e-05	-0.5263270710582891	-0.1366315750615239	-0.1786598290922625	-0.009162724107583939	0.02722508436319855	-0.3181786275047002	0.02211288756254264	-0.0009408190880718921	0.2256069984279281	-5.258453920163989	-34.56851615480434	-5.176459985165254	-0.2203872059640073	-5.463762341839136	-627.0838786648891	69.34775697283291	0.29620071283671	0.7013558961569829	-0.5842508199506793	-1.154231065089198	0.01584580427527954	-0.04164105118738452	2.016228603494775	-1.480530356014318	-1.480530356014301	0.8086989587128551	-0.06340962446699834	-0.7506155482560212	-0.1434950710760889	1.433985431618837e-07	-3.73707911055225e-08	-2.670276432898228e-06	-1.09289458202983e-08	2.975807952277485e-07	2.72770427799872e-07	-1.743497049587834e-06
1.51	-0.1090760824584235	0.02234477403366079	0.8009578733417426	0.8853218683231187	-0.2380209957834949	-0.08158858288433322	-0.6300452465169053	0.9959763083047914	0.9959763083047649	5.485839074855737e-05	0.1745322290829073	0.3049359672561474	0.1184286364818873	0.5404535027327172	0.2459406620135139	0.5925785133383507	-2.284857733788006	0.03586994237066286	-0.4152055459804758	0.8166631518233743	-2.183466546969653	-2.183466546969648	0.2647813451314336	2.892566994028509e-06	-0.5336419923207538	-0.1382725365757566	-0.1707631322411499	-0.009772621554183887	0.02709540853650268	-0.313235293709601	0.02350998011019053	-0.001978679425233078	0.2183182105019479	-6.190893000668463	-33.81763291995238	-5.449242310494253	-0.2299973748915856	-5.425321402464961	-621.2356661461895	68.38733250939187	0.2621786198841563	0.6836993199861244	-0.6596400184828469	-0.9977760460873802	-0.01740318915393067	-0.1364589475251087	1.927908387707954	-1.315521094029125	-1.315521094029605	0.7668348123592752	0.03594754838347754	-0.7090848574313009	-0.1738052863036505	9.944527548585779e-08	-1.313835352440852e-07	-3.219018899913238e-06	-7.132468164592189e-07	4.020530048317969e-07	2.443970639509375e-07	-2.131313277422297e-06
1.52	-0.1036595620690794	0.0248380322380903	0.8068493225638144	0.8624269368992198	-0.2376630616195466	-0.08574530026482959	-0.6217830636808113	0.9740792516819005	0.9740792516818825	0.002741799856528888	0.1745321778238851	0.2995651170652821	0.1170377823104	0.5427662596263222	0.2526788361875299	0.5855804282573633	-2.293821199308862	0.03569743775388895	-0.4161102466495592	0.8356576101393496	-2.195637896810554	-2.195637896810552	0.2726153505854309	-2.161500974388901e-05	-0.5404430912708029	-0.1398898418782638	-0.162866435389988	-0.01038251900079201	0.02696573270984223	-0.3082919599144939	0.0249070726578325	-0.003016539762402883	0.2110294225760096	-7.200458846448206	-33.06051916239309	-5.710255443413875	-0.2536796193140156	-5.410818853799045	-615.3177147378175	67.45999091655035	0.1948160052170298	0.6635140690144504	-0.7409665538561747	-0.7856362642843939	-0.0103868445253022	-0.007122054776880393	1.8772622962002	-1.112396282572309	-1.112396282572302	0.8149654009264783	-0.0760798207241373	-0.6478510857729324	-0.1387638287310252	7.368493093479747e-08	-1.889842501344964e-07	-3.55943830544172e-06	-1.152820544367412e-06	4.648249091582757e-07	2.272921393911813e-07	-2.34212128006519e-06
1.53	-0.09822246146713771	0.02739764991674296	0.8126669582195545	0.8394516018937376	-0.2373073446455106	-0.08991108504107512	-0.6133346029391872	0.952069682245287	0.9520696822452767	0.005506355691271236	0.1745319054134841	0.2941289206393414	0.1156311881728376	0.5445666113469619	0.2592043546229044	0.5778238526733513	-2.300931015088834	0.03543095419530074	-0.4170573824912749	0.853899883505561	-2.205961718172853	-2.20596171817286	0.2802654515846181	-2.202233954002405e-05	-0.546704085737892	-0.1414113734305795	-0.1549427164308724	-0.01143372217899621	0.02671843413939411	-0.3036781872778116	0.02627826972108488	-0.003901290300580644	0.2037081106098902	-8.28551603791847	-32.32463374307568	-5.881254686164774	-0.3228233561736047	-5.345518951811841	-609.7531595022798	66.79327113975361	0.1595264413083463	0.6411176279636868	-0.8113867108304201	-0.6264706201020647	-0.03746750061093981	-0.1399793691431525	1.777511654836062	-0.9452469743221654	-0.9452469743234079	0.7349548824190162	0.03923263825870454	-0.6012988820900057	-0.1569591020107025	6.725456720401287e-08	-2.078971839487472e-07	-3.678514458140769e-06	-1.313228620624209e-06	4.832902391273374e-07	2.22159931576177e-07	-2.364858043442044e-06
1.54	-0.09276998101083937	0.03002133215918265	0.8184033513894234	0.8164146054534005	-0.2369548301849013	-0.09408663517977055	-0.6047077591043003	0.9299663002127931	0.9299663002127987	0.008346397022589816	0.1745318796952388	0.2886328992177463	0.1142097564630439	0.5458422305004553	0.2654917489449364	0.5693319310831197	-2.306153486278728	0.03505693507331148	-0.4180633191439712	0.8713342287919524	-2.214400415985687	-2.214400415985703	0.2877124499039825	2.772342531141962e-05	-0.5524080904015052	-0.1428573563240514	-0.1470189974717112	-0.01248492535719989	0.02647113556895315	-0.2990644146411238	0.02764946678433292	-0.004786040838761074	0.1963867986438088	-9.441906491211057	-31.58322424857903	-6.042521336626181	-0.4035290432466148	-5.29774919465956	-604.1206256080387	66.1491447159181	0.08986949178778411	0.6158892463459971	-0.8880357551000974	-0.4081673462688203	-0.03189395720565206	-0.01888221697331923	1.715676680236238	-0.7353715726792428	-0.7353715726792389	0.7743448649618617	-0.06604920179425375	-0.5364531250777386	-0.1236540969623842	5.955256393874474e-08	-2.129945169228376e-07	-3.591830872919302e-06	-1.377305318306316e-06	4.748552430871558e-07	2.08083047423879e-07	-2.252111515890173e-06
1.55	-0.08730754149875886	0.03270662267799941	0.8240512007186006	0.7933351229654005	-0.2366063531518022	-0.09827189559355783	-0.5959106515294705	0.9077881911792743	0.9077881911792732	0.01125999560853594	0.1745319047218031	0.2830827800390886	0.112774653227501	0.5465535473962837	0.2715181781561514	0.5601237320902922	-2.30941642380825	0.03462447272647068	-0.4189928529853219	0.8879304250466854	-2.220893685543682	-2.220893685543703	0.2949754444150851	-1.445562307706621e-05	-0.5575163238184986	-0.1441433299442629	-0.1389952295158057	-0.01346593669819401	0.02611682644892039	-0.2948868653699421	0.02933978278390006	-0.005863573373671756	0.1889929218678928	-10.61993736157417	-30.77774456950263	-6.29289336859925	-0.4510711916326252	-5.263102909554522	-598.8493488081502	65.38375310904168	0.04791711986843004	0.5888759635478279	-0.9543083398218691	-0.2363990861103336	-0.05142105045418835	-0.1305208408075633	1.608061928968064	-0.5571579294842717	-0.5571579294849811	0.6970575388094012	0.02761025178887976	-0.4830063309558086	-0.1287140772146629	5.038541077505001e-08	-2.021738750158747e-07	-3.268076285311164e-06	-1.330391514587154e-06	4.354263931667607e-07	1.837003405351346e-07	-1.983264674876954e-06
1.56	-0.08184075795145342	0.03545074872993637	0.8296035487841603	0.7702328026761383	-0.2362627004775966	-0.1024665577203634	-0.5869522878259181	0.8855549787937455	0.8855549787937471	0.01424518029849154	0.1745316904594806	0.2774845789500716	0.1113271612392212	0.5467110375476502	0.2772588555689744	0.5502316783596072	-2.310721046530414	0.03409206329841326	-0.4199436617503447	0.9035854545364697	-2.225421086386659	-2.225421086386686	0.3020296707111979	-2.013434546354861e-05	-0.5620244724733173	-0.145335106871041	-0.13097146155986	-0.01444694803920854	0.02576251732894733	-0.2907093160987503	0.03103009878345817	-0.006941105908617798	0.1815990450920125	-11.79448826883497	-29.97172241226577	-6.539775486875347	-0.5030461127955171	-5.228824200615589	-593.575353688542	64.63316168328441	-0.02089585710458215	0.5587388866676389	-1.024806702671591	-0.01650438479718046	-0.05188337344908232	-0.0231372017079386	1.52744332724655	-0.342197829675595	-0.3421978296755944	0.7325912219638882	-0.05874913659360297	-0.4164361726427477	-0.1048147582757958	4.341954121072097e-08	-2.014864319460966e-07	-3.100710761650743e-06	-1.35268900748107e-06	4.167213590275215e-07	1.633648416994896e-07	-1.80807377569152e-06
